# xmcd
#
# Track frame offsets:
#	150
#	21390
#	35950
#	60167
#	85667
#	104580
#	131630
#	149330
#	167055
#	183195
#	201875
#	220090
#
# Disc length: 3239 seconds
#
# Revision: 2
# Processed by: cddbd v1.5.1PL0 Copyright (c) Steve Scherf et al.
# Submitted via: audiograbber 1.83.01
#
DISCID=ab0ca50c
DTITLE=B.J. Sharp - Never Felt No BLues
DYEAR=1997
DGENRE=Blues
TTITLE0=Never Felt No Blues
TTITLE1=Can't Keep A Hold On You
TTITLE2=I Don't Deserve
TTITLE3=Rainy Sunday Nights
TTITLE4=Your Mama's Talkin
TTITLE5=Top Of My Game
TTITLE6=Keep On Cookin'
TTITLE7=Cheatin' On Me
TTITLE8=Tied Up, Tied Down
TTITLE9=Chemistry
TTITLE10=Salt In My Wounds
TTITLE11=Just Ain't Worth It
EXTD=1997 Critique Records, California
EXTT0=
EXTT1=
EXTT2=
EXTT3=
EXTT4=
EXTT5=
EXTT6=
EXTT7=
EXTT8=
EXTT9=
EXTT10=
EXTT11=
PLAYORDER=
